<svg xmlns="http://www.w3.org/2000/svg" width="1200" height="630"
     viewBox="0 0 1200 630" role="img"
     aria-label="Parcelle cultivee vue de dessus avec un capteur AgroTech Faso au centre">
  <defs>
    <clipPath id="parcelle">
      <rect x="0" y="150" width="1200" height="480"/>
    </clipPath>
  </defs>

  <rect width="1200" height="630" fill="#0c2113"/>
  <rect x="0" y="150" width="1200" height="480" fill="#122e1a"/>

  <g clip-path="url(#parcelle)">
    <rect x="0" y="530" width="1200" height="100" fill="#2e6b3a" opacity="0.35"/>
    <path d="M70 270V530" stroke="#b5542c" stroke-width="1.5" opacity="0.5"/><path d="M150 270V530" stroke="#b5542c" stroke-width="1.5" opacity="0.5"/><path d="M230 270V530" stroke="#b5542c" stroke-width="1.5" opacity="0.5"/><path d="M310 270V530" stroke="#b5542c" stroke-width="1.5" opacity="0.5"/><path d="M390 270V530" stroke="#b5542c" stroke-width="1.5" opacity="0.5"/><path d="M470 270V530" stroke="#b5542c" stroke-width="1.5" opacity="0.5"/><path d="M550 270V530" stroke="#b5542c" stroke-width="1.5" opacity="0.5"/><path d="M630 270V530" stroke="#b5542c" stroke-width="1.5" opacity="0.5"/><path d="M710 270V530" stroke="#b5542c" stroke-width="1.5" opacity="0.5"/><path d="M790 270V530" stroke="#b5542c" stroke-width="1.5" opacity="0.5"/><path d="M870 270V530" stroke="#b5542c" stroke-width="1.5" opacity="0.5"/><path d="M950 270V530" stroke="#b5542c" stroke-width="1.5" opacity="0.5"/><path d="M1030 270V530" stroke="#b5542c" stroke-width="1.5" opacity="0.5"/><path d="M1110 270V530" stroke="#b5542c" stroke-width="1.5" opacity="0.5"/><g stroke="#2e6b3a" stroke-width="2" stroke-linecap="round"><path d="M70 300v10M65 305L70 300L75 305"/></g><g stroke="#2e6b3a" stroke-width="2" stroke-linecap="round"><path d="M70 350v10M65 355L70 350L75 355"/></g><g stroke="#2e6b3a" stroke-width="2" stroke-linecap="round"><path d="M70 400v10M65 405L70 400L75 405"/></g><g stroke="#2e6b3a" stroke-width="2" stroke-linecap="round"><path d="M70 450v10M65 455L70 450L75 455"/></g><g stroke="#2e6b3a" stroke-width="2" stroke-linecap="round"><path d="M70 500v10M65 505L70 500L75 505"/></g><g stroke="#2e6b3a" stroke-width="2" stroke-linecap="round"><path d="M150 300v10M145 305L150 300L155 305"/></g><g stroke="#2e6b3a" stroke-width="2" stroke-linecap="round"><path d="M150 350v10M145 355L150 350L155 355"/></g><g stroke="#2e6b3a" stroke-width="2" stroke-linecap="round"><path d="M150 400v10M145 405L150 400L155 405"/></g><g stroke="#2e6b3a" stroke-width="2" stroke-linecap="round"><path d="M150 450v10M145 455L150 450L155 455"/></g><g stroke="#2e6b3a" stroke-width="2" stroke-linecap="round"><path d="M150 500v10M145 505L150 500L155 505"/></g><g stroke="#2e6b3a" stroke-width="2" stroke-linecap="round"><path d="M230 300v10M225 305L230 300L235 305"/></g><g stroke="#2e6b3a" stroke-width="2" stroke-linecap="round"><path d="M230 350v10M225 355L230 350L235 355"/></g><g stroke="#2e6b3a" stroke-width="2" stroke-linecap="round"><path d="M230 400v10M225 405L230 400L235 405"/></g><g stroke="#2e6b3a" stroke-width="2" stroke-linecap="round"><path d="M230 450v10M225 455L230 450L235 455"/></g><g stroke="#2e6b3a" stroke-width="2" stroke-linecap="round"><path d="M230 500v10M225 505L230 500L235 505"/></g><g stroke="#2e6b3a" stroke-width="2" stroke-linecap="round"><path d="M310 300v10M305 305L310 300L315 305"/></g><g stroke="#2e6b3a" stroke-width="2" stroke-linecap="round"><path d="M310 350v10M305 355L310 350L315 355"/></g><g stroke="#2e6b3a" stroke-width="2" stroke-linecap="round"><path d="M310 400v10M305 405L310 400L315 405"/></g><g stroke="#2e6b3a" stroke-width="2" stroke-linecap="round"><path d="M310 450v10M305 455L310 450L315 455"/></g><g stroke="#2e6b3a" stroke-width="2" stroke-linecap="round"><path d="M310 500v10M305 505L310 500L315 505"/></g><g stroke="#2e6b3a" stroke-width="2" stroke-linecap="round"><path d="M390 300v10M385 305L390 300L395 305"/></g><g stroke="#2e6b3a" stroke-width="2" stroke-linecap="round"><path d="M390 350v10M385 355L390 350L395 355"/></g><g stroke="#2e6b3a" stroke-width="2" stroke-linecap="round"><path d="M390 400v10M385 405L390 400L395 405"/></g><g stroke="#2e6b3a" stroke-width="2" stroke-linecap="round"><path d="M390 450v10M385 455L390 450L395 455"/></g><g stroke="#2e6b3a" stroke-width="2" stroke-linecap="round"><path d="M390 500v10M385 505L390 500L395 505"/></g><g stroke="#2e6b3a" stroke-width="2" stroke-linecap="round"><path d="M470 300v10M465 305L470 300L475 305"/></g><g stroke="#2e6b3a" stroke-width="2" stroke-linecap="round"><path d="M470 350v10M465 355L470 350L475 355"/></g><g stroke="#2e6b3a" stroke-width="2" stroke-linecap="round"><path d="M470 400v10M465 405L470 400L475 405"/></g><g stroke="#2e6b3a" stroke-width="2" stroke-linecap="round"><path d="M470 450v10M465 455L470 450L475 455"/></g><g stroke="#2e6b3a" stroke-width="2" stroke-linecap="round"><path d="M470 500v10M465 505L470 500L475 505"/></g><g stroke="#2e6b3a" stroke-width="2" stroke-linecap="round"><path d="M550 300v10M545 305L550 300L555 305"/></g><g stroke="#2e6b3a" stroke-width="2" stroke-linecap="round"><path d="M550 350v10M545 355L550 350L555 355"/></g><g stroke="#2e6b3a" stroke-width="2" stroke-linecap="round"><path d="M550 400v10M545 405L550 400L555 405"/></g><g stroke="#2e6b3a" stroke-width="2" stroke-linecap="round"><path d="M550 450v10M545 455L550 450L555 455"/></g><g stroke="#2e6b3a" stroke-width="2" stroke-linecap="round"><path d="M550 500v10M545 505L550 500L555 505"/></g><g stroke="#2e6b3a" stroke-width="2" stroke-linecap="round"><path d="M630 300v10M625 305L630 300L635 305"/></g><g stroke="#2e6b3a" stroke-width="2" stroke-linecap="round"><path d="M630 350v10M625 355L630 350L635 355"/></g><g stroke="#2e6b3a" stroke-width="2" stroke-linecap="round"><path d="M630 400v10M625 405L630 400L635 405"/></g><g stroke="#2e6b3a" stroke-width="2" stroke-linecap="round"><path d="M630 450v10M625 455L630 450L635 455"/></g><g stroke="#2e6b3a" stroke-width="2" stroke-linecap="round"><path d="M630 500v10M625 505L630 500L635 505"/></g><g stroke="#2e6b3a" stroke-width="2" stroke-linecap="round"><path d="M710 300v10M705 305L710 300L715 305"/></g><g stroke="#2e6b3a" stroke-width="2" stroke-linecap="round"><path d="M710 350v10M705 355L710 350L715 355"/></g><g stroke="#2e6b3a" stroke-width="2" stroke-linecap="round"><path d="M710 400v10M705 405L710 400L715 405"/></g><g stroke="#2e6b3a" stroke-width="2" stroke-linecap="round"><path d="M710 450v10M705 455L710 450L715 455"/></g><g stroke="#2e6b3a" stroke-width="2" stroke-linecap="round"><path d="M710 500v10M705 505L710 500L715 505"/></g><g stroke="#2e6b3a" stroke-width="2" stroke-linecap="round"><path d="M790 300v10M785 305L790 300L795 305"/></g><g stroke="#2e6b3a" stroke-width="2" stroke-linecap="round"><path d="M790 350v10M785 355L790 350L795 355"/></g><g stroke="#2e6b3a" stroke-width="2" stroke-linecap="round"><path d="M790 400v10M785 405L790 400L795 405"/></g><g stroke="#2e6b3a" stroke-width="2" stroke-linecap="round"><path d="M790 450v10M785 455L790 450L795 455"/></g><g stroke="#2e6b3a" stroke-width="2" stroke-linecap="round"><path d="M790 500v10M785 505L790 500L795 505"/></g><g stroke="#2e6b3a" stroke-width="2" stroke-linecap="round"><path d="M870 300v10M865 305L870 300L875 305"/></g><g stroke="#2e6b3a" stroke-width="2" stroke-linecap="round"><path d="M870 350v10M865 355L870 350L875 355"/></g><g stroke="#2e6b3a" stroke-width="2" stroke-linecap="round"><path d="M870 400v10M865 405L870 400L875 405"/></g><g stroke="#2e6b3a" stroke-width="2" stroke-linecap="round"><path d="M870 450v10M865 455L870 450L875 455"/></g><g stroke="#2e6b3a" stroke-width="2" stroke-linecap="round"><path d="M870 500v10M865 505L870 500L875 505"/></g><g stroke="#2e6b3a" stroke-width="2" stroke-linecap="round"><path d="M950 300v10M945 305L950 300L955 305"/></g><g stroke="#2e6b3a" stroke-width="2" stroke-linecap="round"><path d="M950 350v10M945 355L950 350L955 355"/></g><g stroke="#2e6b3a" stroke-width="2" stroke-linecap="round"><path d="M950 400v10M945 405L950 400L955 405"/></g><g stroke="#2e6b3a" stroke-width="2" stroke-linecap="round"><path d="M950 450v10M945 455L950 450L955 455"/></g><g stroke="#2e6b3a" stroke-width="2" stroke-linecap="round"><path d="M950 500v10M945 505L950 500L955 505"/></g><g stroke="#2e6b3a" stroke-width="2" stroke-linecap="round"><path d="M1030 300v10M1025 305L1030 300L1035 305"/></g><g stroke="#2e6b3a" stroke-width="2" stroke-linecap="round"><path d="M1030 350v10M1025 355L1030 350L1035 355"/></g><g stroke="#2e6b3a" stroke-width="2" stroke-linecap="round"><path d="M1030 400v10M1025 405L1030 400L1035 405"/></g><g stroke="#2e6b3a" stroke-width="2" stroke-linecap="round"><path d="M1030 450v10M1025 455L1030 450L1035 455"/></g><g stroke="#2e6b3a" stroke-width="2" stroke-linecap="round"><path d="M1030 500v10M1025 505L1030 500L1035 505"/></g><g stroke="#2e6b3a" stroke-width="2" stroke-linecap="round"><path d="M1110 300v10M1105 305L1110 300L1115 305"/></g><g stroke="#2e6b3a" stroke-width="2" stroke-linecap="round"><path d="M1110 350v10M1105 355L1110 350L1115 355"/></g><g stroke="#2e6b3a" stroke-width="2" stroke-linecap="round"><path d="M1110 400v10M1105 405L1110 400L1115 405"/></g><g stroke="#2e6b3a" stroke-width="2" stroke-linecap="round"><path d="M1110 450v10M1105 455L1110 450L1115 455"/></g><g stroke="#2e6b3a" stroke-width="2" stroke-linecap="round"><path d="M1110 500v10M1105 505L1110 500L1115 505"/></g>
    <path d="M0 548h1200" stroke="#74b37f" stroke-width="4"/>
  </g>

  <circle cx="600" cy="360" r="132" fill="#0c2113"/>
  <g transform="translate(600 360) scale(0.52)"><defs><clipPath id="bande"><path d="M100,14 C100,14 40,84 40,124 A60,60 0 0 0 160,124 C160,84 100,14 100,14 Z"/></clipPath></defs><path d="M100,14 C100,14 40,84 40,124 A60,60 0 0 0 160,124 C160,84 100,14 100,14 Z" fill="#2e6b3a"/><rect x="30" y="158" width="140" height="40" fill="#b5542c" clip-path="url(#bande)"/><path d="M100,160 L100,108" stroke="#f4ecdd" stroke-width="7" stroke-linecap="round" fill="none"/><path d="M100,140 C86,142 66,134 62,114 C80,110 97,120 100,140 Z" fill="#f4ecdd"/><path d="M100,114 C103,94 120,80 142,82 C140,104 122,117 100,114 Z" fill="#f4ecdd"/></g>
  <g stroke="#d9773f" stroke-width="4" stroke-linecap="round">
    <path d="M700 348a30 30 0 0 1 42 0"/>
    <path d="M686 328a54 54 0 0 1 76 0"/>
    <path d="M672 308a78 78 0 0 1 110 0"/>
  </g>

  <g>
    <rect x="70" y="46" width="6" height="42" fill="#b5542c"/>
    <text x="94" y="78" font-family="Georgia, serif" font-size="34" font-weight="600"
          fill="#f4ecdd" letter-spacing="-0.5">AgroTech Faso</text>
  </g>

  <text x="70" y="140" font-family="Georgia, serif" font-size="52" font-weight="600"
        fill="#f4ecdd" letter-spacing="-1.2">Arrosez au bon moment,</text>
  <text x="70" y="196" font-family="Georgia, serif" font-size="52" font-weight="600"
        fill="#d9773f" letter-spacing="-1.2">recoltez plus.</text>

  <text x="1130" y="596" text-anchor="end" font-family="Georgia, serif"
        font-size="22" fill="#74b37f">Bobo-Dioulasso, Burkina Faso</text>
</svg>
